<?xml version="1.0" standalone="no"?>
<!DOCTYPE svg PUBLIC "-//W3C//DTD SVG 20010904//EN"
 "http://www.w3.org/TR/2001/REC-SVG-20010904/DTD/svg10.dtd">
<svg version="1.0" xmlns="http://www.w3.org/2000/svg"
 width="256.000000pt" height="256.000000pt" viewBox="0 0 256.000000 256.000000"
 preserveAspectRatio="xMidYMid meet">
<metadata>
Created by potrace 1.11, written by Peter Selinger 2001-2013
</metadata>
<g transform="translate(0.000000,256.000000) scale(0.100000,-0.100000)"
fill="#000000" stroke="none">
<path d="M1255 2506 c-11 -7 -40 -24 -65 -38 -25 -14 -119 -68 -210 -120 -91
-53 -247 -144 -348 -202 -101 -58 -186 -106 -189 -106 -4 0 -14 -6 -22 -14 -9
-7 -47 -31 -86 -51 -38 -21 -83 -48 -100 -59 l-30 -21 2 -140 c1 -77 4 -355 6
-618 4 -528 -2 -483 67 -519 14 -7 69 -39 123 -70 55 -32 100 -58 102 -58 2 0
49 -27 105 -60 56 -33 105 -60 109 -60 4 0 12 -5 19 -12 7 -7 37 -26 67 -43
30 -16 147 -83 259 -148 112 -64 210 -117 216 -117 7 0 233 127 504 282 270
155 510 292 534 306 23 13 42 29 43 35 3 46 1 1218 -2 1221 -4 4 -659 384
-729 424 -25 14 -89 52 -143 84 -55 32 -101 58 -103 58 -2 0 -25 14 -51 30
-54 35 -52 34 -78 16z"/>
</g>
</svg>
